<svg xmlns="http://www.w3.org/2000/svg" width="29.76" height="30" viewBox="0 0 29.76 30">
  <path id="github" d="M14.88.3A15.135,15.135,0,0,0,0,15.678,15.341,15.341,0,0,0,10.174,30.27c.744.145,1.017-.331,1.017-.74,0-.365-.012-1.333-.019-2.615-4.139.928-5.012-2.064-5.012-2.064A4.043,4.043,0,0,0,4.5,22.6c-1.348-.954.1-.934.1-.934a3.133,3.133,0,0,1,2.279,1.584,3.113,3.113,0,0,0,4.334,1.279,3.322,3.322,0,0,1,.942-2.057c-3.3-.385-6.778-1.707-6.778-7.6a6.046,6.046,0,0,1,1.531-4.127,5.639,5.639,0,0,1,.13-4.071s1.246-.413,4.092,1.577a13.589,13.589,0,0,1,7.44,0c2.827-1.989,4.073-1.577,4.073-1.577a5.8,5.8,0,0,1,.149,4.071,6.071,6.071,0,0,1,1.525,4.127c0,5.909-3.478,7.21-6.789,7.588a3.749,3.749,0,0,1,1,2.845c0,2.058-.019,3.712-.019,4.212,0,.4.26.884,1.023.731A15.288,15.288,0,0,0,29.76,15.678,15.137,15.137,0,0,0,14.88.3" transform="translate(0 -0.297)" fill="#fff"/>
</svg>
