<?xml version="1.0" encoding="utf-8"?>
<!-- Generator: Adobe Illustrator 26.0.1, SVG Export Plug-In . SVG Version: 6.00 Build 0)  -->
<svg version="1.1" id="Layer_1" xmlns="http://www.w3.org/2000/svg" xmlns:xlink="http://www.w3.org/1999/xlink" x="0px" y="0px"
	 viewBox="0 0 482.75 392.12" style="enable-background:new 0 0 482.75 392.12;" xml:space="preserve">
<style type="text/css">
	.st0{fill:#FFFFFF;}
</style>
<g>
	<path class="st0" d="M482.75,9.81L472.94,0L342.83,130.11c-4.29-9.32-10.06-17.82-17-25.21l64.97-64.97l-9.81-9.81L315.61,95.5
		C299.5,82.71,279.13,75.06,257,75.06c-52.07,0-94.44,42.37-94.44,94.44c0,14.65,3.35,28.53,9.33,40.92L0,382.31l9.81,9.81
		L179.1,222.83c9.63,14.02,22.93,25.32,38.51,32.5l-64.49,64.49l9.81,9.81l69.05-69.05c7.97,2.19,16.35,3.37,25.01,3.37
		c52.08,0,94.44-42.36,94.44-94.44c0-8.66-1.18-17.04-3.37-25.01L482.75,9.81z M189.12,212.81l73.83-73.83l-9.81-9.81l-70.73,70.73
		c-3.84-9.39-5.98-19.65-5.98-30.41c0-44.42,36.14-80.57,80.57-80.57c18.3,0,35.18,6.14,48.72,16.46l-14.34,14.34l9.81,9.81
		l14.81-14.81c6.95,7.49,12.5,16.29,16.22,25.99L228.21,244.73C212.03,238.51,198.35,227.22,189.12,212.81z M337.57,169.5
		c0,44.43-36.14,80.57-80.57,80.57c-4.56,0-9.02-0.4-13.38-1.13l92.81-92.81C337.17,160.48,337.57,164.94,337.57,169.5z"/>
	<path class="st0" d="M45.75,315.55c14.69,0,26.64-11.95,26.64-26.64c0-14.69-11.95-26.64-26.64-26.64
		c-14.69,0-26.64,11.95-26.64,26.64C19.11,303.61,31.06,315.55,45.75,315.55z M45.75,276.15c7.04,0,12.77,5.73,12.77,12.77
		c0,7.04-5.73,12.77-12.77,12.77c-7.04,0-12.77-5.73-12.77-12.77C32.98,281.88,38.71,276.15,45.75,276.15z"/>
	<path class="st0" d="M424.88,95.89c-13.82,0-25.07,11.24-25.07,25.07s11.24,25.07,25.07,25.07s25.07-11.24,25.07-25.07
		S438.7,95.89,424.88,95.89z M424.88,132.15c-6.17,0-11.19-5.02-11.19-11.19s5.02-11.19,11.19-11.19c6.17,0,11.19,5.02,11.19,11.19
		S431.05,132.15,424.88,132.15z"/>
</g>
</svg>
